<svg width="728" height="875" viewBox="0 0 728 875" fill="none" xmlns="http://www.w3.org/2000/svg">
<path d="M770.794 0H94.2789C89.3015 0 84.3367 0.499698 79.4591 1.49157C-6.62091 18.9963 -29.1135 131.513 43.6215 180.766L86.7939 210L135.042 234.641C183.098 259.184 197.658 320.977 165.615 364.393L103.35 448.759C26.8112 552.465 166.033 677.539 260.976 590.367L300.84 553.765C336.778 520.768 394.794 546.261 394.794 595.05V617.43C394.794 671.864 458.258 701.624 500.107 666.815C535.503 637.373 588.077 669.601 577.9 714.503L566.181 766.205C543.67 865.523 679.481 917.647 729.198 828.77L770.794 754.413V0Z" fill="#FC9412"/>
</svg>
